<?xml version="1.0" encoding="utf-8"?>
<!-- Generator: Adobe Illustrator 16.0.0, SVG Export Plug-In . SVG Version: 6.00 Build 0)  -->
<!DOCTYPE svg PUBLIC "-//W3C//DTD SVG 1.1//EN" "http://www.w3.org/Graphics/SVG/1.1/DTD/svg11.dtd">
   <svg version="1.1" id="Layer_1" xmlns="http://www.w3.org/2000/svg" xmlns:xlink="http://www.w3.org/1999/xlink" x="0px" y="0px"

	 width="163.215px" height="13.44px" viewBox="0 0 163.215 13.44" enable-background="new 0 0 163.215 13.44" xml:space="preserve">

<g>

	<path stroke="#ffffff" id="i0" d="M21.572,12.012c0,0.028-0.014,0.07-0.042,0.126c-0.21,0.294-0.462,0.525-0.756,0.693s-0.609,0.297-0.945,0.388

		c-0.336,0.091-0.679,0.147-1.029,0.168s-0.693,0.032-1.029,0.032h-5.124c-0.686,0-1.316-0.144-1.89-0.431

		c-0.574-0.287-1.001-0.759-1.281-1.417C9,12.159,8.475,12.614,7.901,12.936c-0.574,0.322-1.246,0.483-2.016,0.483

		c-0.07,0-0.157-0.007-0.262-0.021c-0.105-0.014-0.207-0.035-0.305-0.063c-0.098-0.028-0.182-0.074-0.252-0.137

		c-0.07-0.063-0.105-0.136-0.105-0.22c0-0.098,0.039-0.175,0.116-0.231c0.077-0.056,0.168-0.098,0.273-0.126

		s0.213-0.049,0.325-0.063c0.112-0.014,0.203-0.021,0.273-0.021c0.28-0.014,0.542-0.105,0.788-0.273

		c0.245-0.168,0.473-0.375,0.683-0.62c0.21-0.245,0.396-0.504,0.557-0.777c0.161-0.273,0.297-0.521,0.409-0.746

		c0.28-0.518,0.515-1.043,0.704-1.575c0.189-0.532,0.368-1.078,0.536-1.638l0.042-0.105c0.042-0.154,0.168-0.248,0.378-0.283

		c0.21-0.035,0.378-0.053,0.504-0.053c0.056,0,0.14,0.004,0.252,0.011c0.112,0.007,0.228,0.028,0.347,0.063

		c0.119,0.035,0.224,0.077,0.315,0.126c0.091,0.049,0.137,0.115,0.137,0.2c0,0.014-0.011,0.07-0.032,0.168

		c-0.021,0.098-0.045,0.207-0.074,0.325c-0.028,0.119-0.056,0.235-0.084,0.347c-0.028,0.112-0.049,0.189-0.063,0.231

		c-0.07,0.336-0.123,0.668-0.157,0.998c-0.035,0.329-0.053,0.668-0.053,1.019c0,0.266,0.024,0.549,0.074,0.851

		c0.049,0.301,0.133,0.581,0.252,0.84c0.119,0.259,0.284,0.473,0.494,0.641s0.483,0.252,0.819,0.252h4.977

		c0.378,0,0.725-0.032,1.04-0.095s0.598-0.241,0.851-0.536c0.112-0.112,0.248-0.189,0.409-0.231s0.318-0.063,0.473-0.063

		c0.056,0,0.14,0.007,0.252,0.021c0.112,0.014,0.228,0.035,0.347,0.063c0.119,0.028,0.224,0.067,0.315,0.116

		C21.526,11.862,21.572,11.928,21.572,12.012z M12.794,2.961c0,0.196-0.039,0.399-0.115,0.609s-0.18,0.403-0.312,0.578

		c-0.132,0.175-0.292,0.318-0.479,0.431c-0.188,0.112-0.385,0.168-0.593,0.168c-0.305,0-0.534-0.105-0.687-0.315

		c-0.153-0.21-0.229-0.455-0.229-0.735c0-0.196,0.038-0.399,0.115-0.609c0.076-0.21,0.18-0.402,0.312-0.578

		c0.132-0.175,0.291-0.318,0.479-0.43c0.187-0.112,0.385-0.168,0.593-0.168c0.305,0,0.534,0.105,0.687,0.315

		C12.717,2.436,12.794,2.681,12.794,2.961z"/>

	<path stroke="#ffffff" id="i1" d="M37.721,11.991c0,0.056-0.014,0.098-0.042,0.126c-0.196,0.294-0.438,0.528-0.725,0.703

		c-0.287,0.175-0.592,0.305-0.914,0.389c-0.322,0.084-0.658,0.14-1.008,0.168c-0.35,0.028-0.686,0.042-1.008,0.042h-4.536

		c-0.308,0-0.616-0.018-0.924-0.053c-0.308-0.035-0.581-0.112-0.819-0.231c-0.238-0.119-0.434-0.297-0.588-0.535

		c-0.154-0.238-0.231-0.553-0.231-0.945c0-0.252,0.028-0.5,0.084-0.745c0.056-0.245,0.119-0.486,0.189-0.725

		c0.07-0.238,0.133-0.476,0.189-0.714c0.056-0.238,0.084-0.483,0.084-0.735c0-0.56-0.182-0.941-0.546-1.145

		c-0.364-0.203-0.792-0.304-1.281-0.304c-0.588,0-1.078,0.081-1.47,0.241c-0.392,0.161-0.725,0.385-0.998,0.672

		s-0.49,0.616-0.651,0.987c-0.161,0.371-0.301,0.767-0.42,1.187s-0.231,0.851-0.336,1.292s-0.228,0.872-0.367,1.292

		c-0.07,0.196-0.21,0.318-0.42,0.367c-0.21,0.049-0.399,0.074-0.567,0.074c-0.042,0-0.123-0.007-0.241-0.021

		c-0.119-0.014-0.235-0.035-0.347-0.063c-0.112-0.028-0.21-0.074-0.294-0.137s-0.112-0.136-0.084-0.22l0.84-3.024l0.84-3.045

		c0.056-0.182,0.196-0.301,0.42-0.357c0.224-0.056,0.413-0.084,0.567-0.084c0.07,0,0.154,0.004,0.252,0.011

		c0.098,0.007,0.196,0.024,0.294,0.052c0.098,0.028,0.189,0.063,0.273,0.105s0.133,0.098,0.147,0.168

		c0.392-0.126,0.791-0.213,1.197-0.262c0.406-0.049,0.812-0.074,1.218-0.074c0.406,0,0.84,0.021,1.302,0.063

		c0.462,0.042,0.885,0.14,1.271,0.294c0.385,0.154,0.703,0.385,0.955,0.693c0.252,0.308,0.378,0.728,0.378,1.26

		c0,0.252-0.028,0.497-0.084,0.735c-0.056,0.238-0.116,0.476-0.179,0.714c-0.063,0.238-0.123,0.476-0.179,0.714

		c-0.056,0.238-0.084,0.483-0.084,0.735c0,0.07,0.014,0.158,0.042,0.263s0.07,0.203,0.126,0.294

		c0.056,0.091,0.129,0.168,0.221,0.231c0.091,0.063,0.2,0.095,0.326,0.095h4.473c0.49,0,0.843-0.049,1.061-0.147

		c0.217-0.098,0.385-0.207,0.504-0.326c0.119-0.119,0.242-0.228,0.368-0.326c0.126-0.098,0.35-0.147,0.672-0.147

		c0.056,0,0.144,0.007,0.263,0.021c0.119,0.014,0.234,0.035,0.347,0.063c0.112,0.028,0.213,0.067,0.304,0.116

		C37.675,11.841,37.721,11.907,37.721,11.991z"/>

	<path stroke="#ffffff" id="i2" d="M52.945,2.856c0,0.098-0.039,0.175-0.115,0.231c-0.077,0.056-0.168,0.098-0.273,0.126

		c-0.105,0.028-0.214,0.049-0.326,0.063c-0.112,0.014-0.203,0.021-0.273,0.021H39.169c-0.182,0.532-0.371,1.089-0.567,1.669

		c-0.196,0.581-0.378,1.169-0.546,1.764c-0.168,0.595-0.305,1.19-0.41,1.785s-0.158,1.172-0.158,1.732

		c0,0.168,0.018,0.385,0.053,0.651c0.035,0.266,0.102,0.518,0.2,0.756c0.098,0.238,0.234,0.445,0.409,0.62

		c0.175,0.175,0.402,0.263,0.683,0.263h5.838c0.364,0,0.689-0.032,0.977-0.095c0.287-0.063,0.557-0.241,0.809-0.536

		c0.112-0.112,0.245-0.189,0.399-0.231c0.154-0.042,0.308-0.063,0.462-0.063c0.056,0,0.14,0.007,0.252,0.021

		c0.112,0.014,0.228,0.035,0.347,0.063c0.119,0.028,0.224,0.067,0.315,0.116c0.091,0.049,0.137,0.115,0.137,0.199

		c0,0.028-0.014,0.07-0.042,0.126c-0.21,0.308-0.476,0.546-0.798,0.714s-0.668,0.294-1.04,0.378s-0.749,0.136-1.134,0.157

		c-0.385,0.021-0.746,0.032-1.082,0.032h-6.069c-0.518,0-0.952-0.077-1.302-0.231c-0.35-0.154-0.63-0.368-0.84-0.641

		s-0.357-0.602-0.441-0.987c-0.084-0.385-0.126-0.815-0.126-1.292c0-0.49,0.056-1.04,0.168-1.648

		c0.112-0.609,0.255-1.225,0.43-1.848c0.175-0.623,0.36-1.235,0.557-1.837c0.196-0.602,0.378-1.148,0.546-1.638h-3.234

		c-0.07,0-0.161-0.007-0.273-0.021c-0.112-0.014-0.221-0.035-0.326-0.063c-0.105-0.028-0.196-0.07-0.273-0.126

		c-0.077-0.056-0.115-0.133-0.115-0.231c0-0.098,0.039-0.175,0.115-0.231c0.077-0.056,0.168-0.102,0.273-0.137

		c0.105-0.035,0.214-0.056,0.326-0.063c0.112-0.007,0.203-0.01,0.273-0.01h3.549c0.126-0.35,0.255-0.704,0.389-1.061

		c0.133-0.357,0.276-0.696,0.431-1.019c0.07-0.154,0.203-0.249,0.399-0.284C38.924,0.018,39.092,0,39.232,0

		c0.07,0,0.161,0.003,0.273,0.01c0.112,0.007,0.221,0.028,0.326,0.063c0.105,0.035,0.199,0.081,0.283,0.137

		c0.084,0.056,0.126,0.133,0.126,0.231c0,0.028-0.035,0.133-0.105,0.315c-0.07,0.182-0.147,0.385-0.231,0.609

		c-0.084,0.224-0.168,0.438-0.252,0.641c-0.084,0.203-0.14,0.34-0.168,0.41h12.474c0.07,0,0.161,0.003,0.273,0.01

		c0.112,0.007,0.221,0.028,0.326,0.063c0.105,0.035,0.196,0.081,0.273,0.137C52.907,2.681,52.945,2.758,52.945,2.856z"/>

	<path stroke="#ffffff" id="i3" d="M62.563,12.012c0,0.028-0.007,0.049-0.021,0.063c-0.014,0.014-0.028,0.035-0.042,0.063

		c-0.224,0.294-0.483,0.528-0.777,0.703c-0.294,0.175-0.606,0.305-0.935,0.389c-0.329,0.084-0.672,0.136-1.029,0.157

		c-0.357,0.021-0.703,0.032-1.039,0.032h-8.715c-0.434,0-0.882-0.024-1.344-0.074c-0.462-0.049-0.882-0.157-1.26-0.325

		s-0.689-0.413-0.935-0.735c-0.245-0.322-0.367-0.756-0.367-1.302c0-0.448,0.08-0.91,0.241-1.386s0.375-0.896,0.641-1.26

		c0.28-0.378,0.605-0.689,0.977-0.935c0.371-0.245,0.763-0.434,1.176-0.567c0.413-0.133,0.843-0.228,1.292-0.284

		c0.448-0.056,0.896-0.084,1.344-0.084c0.336,0,0.735,0.004,1.197,0.011c0.462,0.007,0.903,0.063,1.323,0.168

		s0.777,0.284,1.071,0.536s0.441,0.623,0.441,1.113c0,0.21-0.052,0.392-0.157,0.546c-0.105,0.154-0.238,0.287-0.399,0.399

		c-0.161,0.112-0.34,0.21-0.536,0.294c-0.196,0.084-0.385,0.161-0.567,0.231c-0.98,0.378-1.967,0.738-2.961,1.082

		c-0.994,0.343-1.995,0.675-3.003,0.997c0.084,0.168,0.21,0.298,0.378,0.389c0.168,0.091,0.35,0.161,0.546,0.21

		c0.196,0.049,0.396,0.077,0.599,0.084c0.203,0.007,0.388,0.011,0.556,0.011h8.505c0.392,0,0.731-0.028,1.018-0.084

		s0.57-0.238,0.851-0.546c0.112-0.112,0.245-0.189,0.399-0.231c0.154-0.042,0.308-0.063,0.462-0.063

		c0.056,0,0.143,0.007,0.262,0.021c0.119,0.014,0.238,0.035,0.357,0.063c0.119,0.028,0.224,0.067,0.315,0.116

		C62.518,11.862,62.563,11.928,62.563,12.012z M53.87,8.31c0-0.362-0.147-0.612-0.441-0.751c-0.294-0.139-0.777-0.208-1.449-0.208

		c-0.35,0-0.69,0.024-1.019,0.073c-0.329,0.048-0.641,0.135-0.935,0.261c-0.294,0.125-0.56,0.292-0.798,0.501

		c-0.238,0.208-0.441,0.48-0.609,0.813c-0.14,0.265-0.259,0.557-0.357,0.877c-0.098,0.32-0.161,0.626-0.189,0.918

		c0.196-0.069,0.511-0.174,0.945-0.313c0.434-0.139,0.903-0.296,1.407-0.47c0.504-0.174,1.012-0.351,1.522-0.532

		c0.511-0.181,0.935-0.341,1.271-0.48c0.168-0.069,0.318-0.17,0.452-0.302C53.803,8.564,53.87,8.436,53.87,8.31z"/>

	<path stroke="#ffffff" id="i4" d="M79.405,11.928c0,0.028-0.014,0.07-0.042,0.126c-0.238,0.336-0.529,0.595-0.872,0.777c-0.343,0.182-0.71,0.318-1.103,0.409

		c-0.392,0.091-0.791,0.144-1.197,0.158c-0.406,0.014-0.791,0.021-1.155,0.021h-3.045c-0.616,0-1.187-0.049-1.711-0.147

		c-0.525-0.098-0.984-0.273-1.375-0.525c-0.392-0.252-0.697-0.605-0.914-1.061c-0.217-0.455-0.325-1.04-0.325-1.753

		c0-0.448,0.038-0.896,0.115-1.344c0.077-0.448,0.186-0.889,0.326-1.323h-2.94c-0.28,0.938-0.627,1.795-1.04,2.572

		c-0.413,0.777-0.935,1.543-1.564,2.3c-0.406,0.504-0.89,0.843-1.449,1.018c-0.56,0.175-1.155,0.263-1.785,0.263

		c-0.07,0-0.157-0.007-0.262-0.021c-0.105-0.014-0.21-0.035-0.315-0.063c-0.105-0.028-0.193-0.07-0.263-0.126

		c-0.07-0.056-0.105-0.133-0.105-0.231c0-0.098,0.039-0.175,0.116-0.231c0.077-0.056,0.168-0.098,0.273-0.126

		s0.213-0.049,0.325-0.063c0.112-0.014,0.203-0.021,0.273-0.021c0.518-0.028,0.952-0.238,1.302-0.63

		c0.658-0.756,1.211-1.575,1.659-2.457c0.448-0.882,0.805-1.798,1.071-2.751c0.07-0.224,0.123-0.448,0.157-0.672

		c0.035-0.224,0.087-0.448,0.158-0.672c0.056-0.196,0.192-0.322,0.41-0.378c0.217-0.056,0.409-0.084,0.577-0.084

		c0.07,0,0.158,0.007,0.263,0.021c0.105,0.014,0.21,0.035,0.315,0.063c0.105,0.028,0.196,0.073,0.273,0.136

		c0.077,0.063,0.116,0.144,0.116,0.242c0,0.014-0.011,0.07-0.032,0.168c-0.021,0.098-0.045,0.207-0.073,0.326

		c-0.028,0.119-0.056,0.228-0.084,0.325c-0.028,0.098-0.049,0.168-0.063,0.21h3.822c0.07,0,0.158,0.007,0.263,0.021

		c0.105,0.014,0.21,0.035,0.315,0.063c0.105,0.028,0.196,0.074,0.273,0.137c0.077,0.063,0.115,0.136,0.115,0.22

		c0,0.056-0.007,0.098-0.021,0.126c-0.168,0.504-0.308,1.022-0.42,1.554c-0.112,0.532-0.168,1.064-0.168,1.596

		c0,0.266,0.053,0.542,0.158,0.83s0.255,0.549,0.451,0.787c0.196,0.238,0.427,0.434,0.693,0.588

		c0.266,0.154,0.553,0.231,0.861,0.231h3.843c0.378,0,0.717-0.045,1.018-0.137c0.301-0.091,0.584-0.283,0.851-0.578

		c0.112-0.112,0.249-0.189,0.41-0.231c0.161-0.042,0.318-0.063,0.473-0.063c0.056,0,0.14,0.007,0.252,0.021

		c0.112,0.014,0.227,0.035,0.346,0.063c0.119,0.028,0.224,0.067,0.315,0.116C79.36,11.778,79.405,11.844,79.405,11.928z"/>

	<path stroke="#ffffff" id="i5" d="M96.604,12.012c0,0.028-0.014,0.07-0.042,0.126c-0.21,0.294-0.462,0.525-0.756,0.693s-0.609,0.297-0.945,0.388

		c-0.336,0.091-0.679,0.147-1.029,0.168c-0.35,0.021-0.686,0.032-1.008,0.032h-5.082c-0.462,0-0.893-0.084-1.292-0.252

		s-0.718-0.469-0.956-0.903c-0.56,0.462-1.222,0.77-1.984,0.924c-0.763,0.154-1.495,0.231-2.195,0.231

		c-0.406,0-0.843-0.021-1.312-0.063s-0.906-0.144-1.312-0.305c-0.406-0.161-0.742-0.395-1.008-0.703

		c-0.266-0.308-0.399-0.728-0.399-1.26c0-0.196,0.017-0.385,0.052-0.567c0.035-0.182,0.081-0.371,0.137-0.567

		c0.14-0.49,0.333-0.962,0.578-1.417c0.245-0.455,0.591-0.822,1.039-1.103c0.588-0.378,1.215-0.633,1.88-0.767

		c0.665-0.133,1.34-0.2,2.026-0.2c0.476,0,0.969,0.028,1.48,0.084c0.511,0.056,0.983,0.196,1.417,0.42

		c0.056-0.182,0.105-0.336,0.147-0.462s0.095-0.231,0.158-0.315s0.157-0.143,0.283-0.178s0.301-0.053,0.525-0.053

		c0.07,0,0.161,0.007,0.273,0.021c0.112,0.014,0.224,0.039,0.336,0.074c0.112,0.035,0.206,0.084,0.283,0.147

		s0.116,0.144,0.116,0.241c0,0.042-0.007,0.077-0.021,0.105c-0.238,0.672-0.445,1.396-0.62,2.174

		c-0.175,0.777-0.262,1.522-0.262,2.236c0,0.154,0.021,0.322,0.063,0.504c0.042,0.182,0.108,0.354,0.199,0.515

		c0.091,0.161,0.203,0.294,0.336,0.399c0.133,0.105,0.284,0.158,0.452,0.158h4.62c0.378,0,0.724-0.032,1.04-0.095

		c0.315-0.063,0.598-0.241,0.85-0.536c0.112-0.112,0.249-0.189,0.41-0.231c0.161-0.042,0.318-0.063,0.473-0.063

		c0.056,0,0.14,0.007,0.252,0.021c0.112,0.014,0.228,0.035,0.346,0.063c0.119,0.028,0.224,0.067,0.315,0.116

		C96.559,11.862,96.604,11.928,96.604,12.012z M85.096,8.778c0-0.322-0.063-0.574-0.189-0.756c-0.126-0.182-0.291-0.326-0.494-0.431

		c-0.203-0.105-0.427-0.171-0.672-0.199c-0.245-0.028-0.494-0.042-0.746-0.042c-0.924,0-1.687,0.207-2.289,0.619

		c-0.602,0.413-1.029,1.075-1.281,1.985c-0.056,0.196-0.105,0.392-0.147,0.588c-0.042,0.196-0.063,0.392-0.063,0.588

		c0,0.308,0.063,0.557,0.189,0.746s0.29,0.333,0.493,0.431s0.427,0.161,0.672,0.189c0.245,0.028,0.493,0.042,0.745,0.042

		c0.924,0,1.684-0.203,2.279-0.609c0.595-0.406,1.025-1.063,1.292-1.974c0.056-0.196,0.105-0.392,0.147-0.588

		C85.075,9.17,85.096,8.974,85.096,8.778z"/>

	<path stroke="#ffffff" id="i6" d="M111.136,12.012c0,0.084-0.056,0.179-0.168,0.284c-0.112,0.105-0.203,0.186-0.273,0.242

		c-0.532,0.42-1.148,0.672-1.848,0.756s-1.379,0.126-2.037,0.126h-9.156c-0.322,0-0.668-0.035-1.038-0.105

		c-0.37-0.07-0.714-0.189-1.033-0.357c-0.318-0.168-0.582-0.389-0.79-0.662c-0.208-0.273-0.311-0.612-0.311-1.019

		c0-0.63,0.115-1.263,0.346-1.9c0.231-0.637,0.584-1.166,1.061-1.585c0.294-0.266,0.616-0.483,0.966-0.651

		c0.35-0.168,0.71-0.297,1.082-0.389c0.371-0.091,0.752-0.154,1.145-0.189c0.392-0.035,0.777-0.053,1.155-0.053

		c0.322,0,0.707,0.011,1.155,0.033s0.875,0.093,1.281,0.215c0.406,0.122,0.756,0.307,1.05,0.556

		c0.294,0.249,0.441,0.597,0.441,1.045c0,0.392-0.08,0.651-0.239,0.777c-0.16,0.126-0.426,0.189-0.8,0.189

		c-0.069,0-0.156-0.007-0.259-0.021c-0.104-0.014-0.208-0.035-0.312-0.063c-0.104-0.028-0.194-0.07-0.27-0.126

		c-0.076-0.056-0.114-0.133-0.114-0.231c0-0.084,0.01-0.171,0.031-0.262s0.032-0.179,0.032-0.263c0-0.252-0.064-0.444-0.19-0.578

		c-0.127-0.133-0.286-0.227-0.476-0.283c-0.19-0.056-0.395-0.087-0.613-0.095c-0.219-0.007-0.427-0.01-0.624-0.01

		c-0.917,0-1.682,0.174-2.295,0.523s-1.068,0.976-1.364,1.882c-0.071,0.223-0.131,0.446-0.18,0.669

		c-0.049,0.223-0.074,0.453-0.074,0.69c0,0.404,0.095,0.704,0.284,0.899c0.189,0.195,0.423,0.328,0.704,0.397

		c0.28,0.07,0.584,0.102,0.914,0.094c0.329-0.007,0.633-0.01,0.914-0.01h7.749c0.406,0,0.808-0.024,1.207-0.074

		c0.399-0.049,0.738-0.234,1.019-0.557c0.112-0.112,0.249-0.189,0.41-0.231c0.161-0.042,0.318-0.063,0.473-0.063

		c0.056,0,0.14,0.007,0.252,0.021c0.112,0.014,0.227,0.035,0.346,0.063c0.119,0.028,0.224,0.067,0.315,0.116

		C111.09,11.862,111.136,11.928,111.136,12.012z"/>

	<path stroke="#ffffff" id="i7" d="M126.382,2.856c0,0.098-0.039,0.175-0.115,0.231c-0.077,0.056-0.168,0.098-0.273,0.126

		c-0.105,0.028-0.214,0.049-0.326,0.063c-0.112,0.014-0.203,0.021-0.273,0.021h-12.789c-0.182,0.532-0.371,1.089-0.567,1.669

		c-0.196,0.581-0.378,1.169-0.546,1.764c-0.168,0.595-0.305,1.19-0.41,1.785s-0.158,1.172-0.158,1.732

		c0,0.168,0.018,0.385,0.053,0.651c0.035,0.266,0.102,0.518,0.2,0.756c0.098,0.238,0.234,0.445,0.409,0.62

		c0.175,0.175,0.402,0.263,0.683,0.263h5.838c0.364,0,0.689-0.032,0.977-0.095c0.287-0.063,0.557-0.241,0.809-0.536

		c0.112-0.112,0.245-0.189,0.399-0.231c0.154-0.042,0.308-0.063,0.462-0.063c0.056,0,0.14,0.007,0.252,0.021

		c0.112,0.014,0.228,0.035,0.347,0.063c0.119,0.028,0.224,0.067,0.315,0.116c0.091,0.049,0.137,0.115,0.137,0.199

		c0,0.028-0.014,0.07-0.042,0.126c-0.21,0.308-0.476,0.546-0.798,0.714s-0.668,0.294-1.04,0.378s-0.749,0.136-1.134,0.157

		c-0.385,0.021-0.746,0.032-1.082,0.032h-6.069c-0.518,0-0.952-0.077-1.302-0.231c-0.35-0.154-0.63-0.368-0.84-0.641

		s-0.357-0.602-0.441-0.987c-0.084-0.385-0.126-0.815-0.126-1.292c0-0.49,0.056-1.04,0.168-1.648

		c0.112-0.609,0.255-1.225,0.43-1.848c0.175-0.623,0.36-1.235,0.557-1.837c0.196-0.602,0.378-1.148,0.546-1.638h-3.234

		c-0.07,0-0.161-0.007-0.273-0.021c-0.112-0.014-0.221-0.035-0.326-0.063c-0.105-0.028-0.196-0.07-0.273-0.126

		c-0.077-0.056-0.115-0.133-0.115-0.231c0-0.098,0.039-0.175,0.115-0.231c0.077-0.056,0.168-0.102,0.273-0.137

		c0.105-0.035,0.214-0.056,0.326-0.063c0.112-0.007,0.203-0.01,0.273-0.01h3.549c0.126-0.35,0.255-0.704,0.389-1.061

		c0.133-0.357,0.276-0.696,0.431-1.019c0.07-0.154,0.203-0.249,0.399-0.284C112.361,0.018,112.529,0,112.669,0

		c0.07,0,0.161,0.003,0.273,0.01c0.112,0.007,0.221,0.028,0.326,0.063c0.105,0.035,0.199,0.081,0.283,0.137

		c0.084,0.056,0.126,0.133,0.126,0.231c0,0.028-0.035,0.133-0.105,0.315c-0.07,0.182-0.147,0.385-0.231,0.609

		c-0.084,0.224-0.168,0.438-0.252,0.641c-0.084,0.203-0.14,0.34-0.168,0.41h12.474c0.07,0,0.161,0.003,0.273,0.01

		c0.112,0.007,0.221,0.028,0.326,0.063c0.105,0.035,0.196,0.081,0.273,0.137C126.343,2.681,126.382,2.758,126.382,2.856z"/>

	<path stroke="#ffffff" id="i8" d="M134.172,12.012c0,0.028-0.014,0.07-0.042,0.126c-0.21,0.294-0.462,0.525-0.756,0.693s-0.609,0.297-0.945,0.388

		c-0.336,0.091-0.679,0.147-1.029,0.168s-0.693,0.032-1.029,0.032h-5.124c-0.686,0-1.316-0.144-1.89-0.431

		c-0.574-0.287-1.001-0.759-1.281-1.417c-0.476,0.588-1.001,1.043-1.575,1.365c-0.574,0.322-1.246,0.483-2.016,0.483

		c-0.07,0-0.157-0.007-0.262-0.021c-0.105-0.014-0.207-0.035-0.305-0.063c-0.098-0.028-0.182-0.074-0.252-0.137

		c-0.07-0.063-0.105-0.136-0.105-0.22c0-0.098,0.039-0.175,0.116-0.231c0.077-0.056,0.168-0.098,0.273-0.126

		s0.213-0.049,0.325-0.063c0.112-0.014,0.203-0.021,0.273-0.021c0.28-0.014,0.542-0.105,0.788-0.273

		c0.245-0.168,0.473-0.375,0.683-0.62c0.21-0.245,0.396-0.504,0.557-0.777c0.161-0.273,0.297-0.521,0.409-0.746

		c0.28-0.518,0.515-1.043,0.704-1.575c0.189-0.532,0.368-1.078,0.536-1.638l0.042-0.105c0.042-0.154,0.168-0.248,0.378-0.283

		c0.21-0.035,0.378-0.053,0.504-0.053c0.056,0,0.14,0.004,0.252,0.011c0.112,0.007,0.228,0.028,0.347,0.063

		c0.119,0.035,0.224,0.077,0.315,0.126c0.091,0.049,0.137,0.115,0.137,0.2c0,0.014-0.011,0.07-0.032,0.168

		c-0.021,0.098-0.045,0.207-0.074,0.325c-0.028,0.119-0.056,0.235-0.084,0.347c-0.028,0.112-0.049,0.189-0.063,0.231

		c-0.07,0.336-0.123,0.668-0.157,0.998c-0.035,0.329-0.053,0.668-0.053,1.019c0,0.266,0.024,0.549,0.074,0.851

		c0.049,0.301,0.133,0.581,0.252,0.84c0.119,0.259,0.284,0.473,0.494,0.641s0.483,0.252,0.819,0.252h4.977

		c0.378,0,0.725-0.032,1.04-0.095s0.598-0.241,0.851-0.536c0.112-0.112,0.248-0.189,0.409-0.231s0.318-0.063,0.473-0.063

		c0.056,0,0.14,0.007,0.252,0.021c0.112,0.014,0.228,0.035,0.347,0.063c0.119,0.028,0.224,0.067,0.315,0.116

		C134.127,11.862,134.172,11.928,134.172,12.012z M125.395,2.961c0,0.196-0.039,0.399-0.115,0.609s-0.18,0.403-0.312,0.578

		c-0.132,0.175-0.292,0.318-0.479,0.431c-0.188,0.112-0.385,0.168-0.593,0.168c-0.305,0-0.534-0.105-0.687-0.315

		c-0.153-0.21-0.229-0.455-0.229-0.735c0-0.196,0.038-0.399,0.115-0.609c0.076-0.21,0.18-0.402,0.312-0.578

		c0.132-0.175,0.291-0.318,0.479-0.43c0.187-0.112,0.385-0.168,0.593-0.168c0.305,0,0.534,0.105,0.687,0.315

		C125.318,2.436,125.395,2.681,125.395,2.961z"/>

	<path stroke="#ffffff" id="i9" d="M148.893,12.033c0,0.028-0.014,0.07-0.042,0.126c-0.21,0.294-0.476,0.525-0.798,0.693

		c-0.322,0.168-0.662,0.294-1.019,0.378s-0.725,0.136-1.103,0.157s-0.735,0.032-1.071,0.032h-5.88c-0.406,0-0.794-0.056-1.166-0.168

		c-0.371-0.112-0.675-0.336-0.913-0.672c-0.294,0.238-0.62,0.441-0.977,0.609s-0.732,0.252-1.124,0.252

		c-0.378,0-0.693-0.084-0.945-0.252c-0.252-0.168-0.465-0.385-0.64-0.651c-0.175-0.266-0.315-0.557-0.42-0.872

		s-0.193-0.626-0.263-0.935c-0.14-0.63-0.249-1.26-0.326-1.89s-0.129-1.267-0.157-1.911c0.112-0.112,0.259-0.217,0.441-0.315

		c0.182-0.098,0.357-0.147,0.525-0.147c0.084,0,0.179,0.007,0.284,0.021c0.105,0.014,0.21,0.035,0.315,0.063

		c0.105,0.028,0.192,0.074,0.262,0.137c0.07,0.063,0.112,0.144,0.126,0.242c0.028,0.154,0.042,0.318,0.042,0.493

		c0,0.175,0.007,0.34,0.021,0.494c0.056,0.658,0.14,1.316,0.252,1.974c0.07,0.406,0.15,0.808,0.241,1.208

		c0.091,0.399,0.234,0.787,0.431,1.166c0.714-0.546,1.351-1.187,1.911-1.922c0.56-0.735,1.084-1.473,1.575-2.215

		c0.154-0.224,0.294-0.444,0.42-0.662c0.126-0.217,0.266-0.43,0.42-0.641c0.084-0.126,0.217-0.206,0.399-0.241

		c0.182-0.035,0.343-0.053,0.483-0.053c0.056,0,0.14,0.004,0.252,0.011c0.112,0.007,0.228,0.028,0.347,0.063

		c0.119,0.035,0.22,0.077,0.304,0.126c0.084,0.049,0.126,0.115,0.126,0.2c0,0.056-0.063,0.186-0.189,0.388

		c-0.126,0.203-0.287,0.445-0.483,0.725c-0.196,0.28-0.41,0.578-0.641,0.893s-0.455,0.612-0.672,0.893

		c-0.217,0.28-0.406,0.528-0.567,0.745c-0.161,0.217-0.27,0.361-0.326,0.431c0.042,0.07,0.077,0.189,0.105,0.357

		c0.028,0.168,0.091,0.34,0.189,0.515c0.098,0.175,0.238,0.329,0.42,0.462c0.182,0.133,0.441,0.2,0.777,0.2h5.46

		c0.448,0,0.777-0.049,0.987-0.147s0.378-0.203,0.504-0.315c0.126-0.112,0.259-0.217,0.399-0.315

		c0.14-0.098,0.364-0.147,0.672-0.147c0.056,0,0.14,0.007,0.252,0.021c0.112,0.014,0.228,0.039,0.347,0.074

		c0.119,0.035,0.22,0.077,0.304,0.126C148.851,11.883,148.893,11.949,148.893,12.033z"/>

	<path stroke="#ffffff" id="i10" d="M163.215,12.012c0,0.028-0.007,0.049-0.021,0.063c-0.014,0.014-0.028,0.035-0.042,0.063

		c-0.224,0.294-0.483,0.528-0.777,0.703c-0.294,0.175-0.606,0.305-0.935,0.389c-0.329,0.084-0.672,0.136-1.029,0.157

		c-0.357,0.021-0.703,0.032-1.039,0.032h-8.715c-0.434,0-0.882-0.024-1.344-0.074c-0.462-0.049-0.882-0.157-1.26-0.325

		s-0.689-0.413-0.935-0.735c-0.245-0.322-0.367-0.756-0.367-1.302c0-0.448,0.08-0.91,0.241-1.386s0.375-0.896,0.641-1.26

		c0.28-0.378,0.605-0.689,0.977-0.935c0.371-0.245,0.763-0.434,1.176-0.567c0.413-0.133,0.843-0.228,1.292-0.284

		c0.448-0.056,0.896-0.084,1.344-0.084c0.336,0,0.735,0.004,1.197,0.011c0.462,0.007,0.903,0.063,1.323,0.168

		s0.777,0.284,1.071,0.536s0.441,0.623,0.441,1.113c0,0.21-0.052,0.392-0.157,0.546c-0.105,0.154-0.238,0.287-0.399,0.399

		c-0.161,0.112-0.34,0.21-0.536,0.294c-0.196,0.084-0.385,0.161-0.567,0.231c-0.98,0.378-1.967,0.738-2.961,1.082

		c-0.994,0.343-1.995,0.675-3.003,0.997c0.084,0.168,0.21,0.298,0.378,0.389c0.168,0.091,0.35,0.161,0.546,0.21

		c0.196,0.049,0.396,0.077,0.599,0.084c0.203,0.007,0.388,0.011,0.556,0.011h8.505c0.392,0,0.731-0.028,1.018-0.084

		s0.57-0.238,0.851-0.546c0.112-0.112,0.245-0.189,0.399-0.231c0.154-0.042,0.308-0.063,0.462-0.063

		c0.056,0,0.143,0.007,0.262,0.021c0.119,0.014,0.238,0.035,0.357,0.063c0.119,0.028,0.224,0.067,0.315,0.116

		C163.17,11.862,163.215,11.928,163.215,12.012z M154.521,8.31c0-0.362-0.147-0.612-0.441-0.751

		c-0.294-0.139-0.777-0.208-1.449-0.208c-0.35,0-0.69,0.024-1.019,0.073c-0.329,0.048-0.641,0.135-0.935,0.261

		c-0.294,0.125-0.56,0.292-0.798,0.501c-0.238,0.208-0.441,0.48-0.609,0.813c-0.14,0.265-0.259,0.557-0.357,0.877

		c-0.098,0.32-0.161,0.626-0.189,0.918c0.196-0.069,0.511-0.174,0.945-0.313c0.434-0.139,0.903-0.296,1.407-0.47

		c0.504-0.174,1.012-0.351,1.522-0.532c0.511-0.181,0.935-0.341,1.271-0.48c0.168-0.069,0.318-0.17,0.452-0.302

		C154.455,8.564,154.521,8.436,154.521,8.31z"/>

</g>

</svg>